# Blender v2.93.5 OBJ File: ''
# www.blender.org
mtllib road.mtl
o Cube_Cube.001
v -1.500000 -0.250000 3.000000
v -1.500000 0.250000 3.000000
v -1.500000 -0.250000 -3.000000
v -1.500000 0.250000 -3.000000
v 1.500000 -0.250000 3.000000
v 1.500000 0.250000 3.000000
v 1.500000 -0.250000 -3.000000
v 1.500000 0.250000 -3.000000
v -1.947808 -0.250000 -3.000000
v -1.947808 -0.250000 3.000000
v -1.947808 0.250000 3.000000
v -1.947808 0.250000 -3.000000
v 1.947808 0.250000 -3.000000
v 1.947808 -0.250000 -3.000000
v 1.947808 -0.250000 3.000000
v 1.947808 0.250000 3.000000
v -1.500000 0.571303 3.000000
v -1.500000 0.571303 -3.000000
v 1.500000 0.571303 -3.000000
v 1.500000 0.571303 3.000000
v -1.947808 0.571303 3.000000
v -1.947808 0.571303 -3.000000
v 1.947808 0.571303 -3.000000
v 1.947808 0.571303 3.000000
vt 0.375000 0.250000
vt 0.625000 0.250000
vt 0.625000 0.500000
vt 0.375000 0.500000
vt 0.375000 0.750000
vt 0.625000 0.750000
vt 0.625000 1.000000
vt 0.375000 1.000000
vt 0.125000 0.500000
vt 0.125000 0.750000
vt 0.875000 0.500000
vt 0.875000 0.750000
vt 0.625000 0.750000
vt 0.625000 0.500000
vt 0.625000 1.000000
vt 0.375000 1.000000
vt 0.375000 0.000000
vt 0.625000 0.000000
vt 0.625000 0.250000
vt 0.375000 0.250000
vt 0.375000 0.500000
vt 0.625000 0.500000
vt 0.625000 0.750000
vt 0.375000 0.750000
vt 0.625000 0.500000
vt 0.125000 0.750000
vt 0.125000 0.500000
vt 0.625000 0.750000
vt 0.875000 0.750000
vt 0.875000 0.500000
vt 0.875000 0.500000
vt 0.875000 0.750000
vt 0.625000 1.000000
vt 0.625000 1.000000
vt 0.625000 0.250000
vt 0.625000 0.250000
vt 0.625000 0.000000
vn 0.0000 0.0000 -1.0000
vn 0.0000 0.0000 1.0000
vn 0.0000 -1.0000 0.0000
vn 0.0000 1.0000 0.0000
vn -1.0000 0.0000 0.0000
vn 1.0000 0.0000 0.0000
usemtl Material.001
s off
f 3/1/1 4/2/1 8/3/1 7/4/1
f 5/5/2 6/6/2 2/7/2 1/8/2
f 3/9/3 7/4/3 5/5/3 1/10/3
f 8/3/4 4/11/4 2/12/4 6/6/4
usemtl Material.002
f 8/3/5 6/6/5 20/13/5 19/14/5
f 1/8/2 2/7/2 11/15/2 10/16/2
f 10/17/5 11/18/5 12/19/5 9/20/5
f 14/21/6 13/22/6 16/23/6 15/24/6
f 7/4/1 8/3/1 13/22/1 14/21/1
f 13/22/1 8/3/1 19/14/1 23/25/1
f 3/9/3 1/10/3 10/26/3 9/27/3
f 6/6/2 5/5/2 15/24/2 16/23/2
f 5/5/3 7/4/3 14/21/3 15/24/3
f 4/2/1 3/1/1 9/20/1 12/19/1
f 19/14/4 20/13/4 24/28/4 23/25/4
f 17/29/4 18/30/4 22/31/4 21/32/4
f 2/12/6 4/11/6 18/30/6 17/29/6
f 6/6/2 16/23/2 24/28/2 20/13/2
f 11/15/2 2/7/2 17/33/2 21/34/2
f 16/23/6 13/22/6 23/25/6 24/28/6
f 4/2/1 12/19/1 22/35/1 18/36/1
f 12/19/5 11/18/5 21/37/5 22/35/5
